{
	"asset":{
		"version":"2.0",
		"generator":"Maxon Cinema 4D 2024.5.1 (#200000219)"
	},
	"scenes":[{
		"nodes":[0,
		1,
		2]
	}],
	"nodes":[{
		"name":"Boole",
		"mesh":0
	},
	{
		"name":"Cylinder.1",
		"mesh":1,
		"translation":[0.0,
		0.1276407539844513,
		-0.030326470732688905],
		"scale":[1.0,
		1.0,
		1.0],
		"rotation":[0.0,
		0.0,
		0.0,
		-1.0]
	},
	{
		"name":"Subdivision Surface",
		"mesh":2,
		"translation":[0.0,
		0.0728069469332695,
		0.0],
		"scale":[1.0,
		1.0,
		1.0],
		"rotation":[0.5387743711471558,
		0.0,
		0.0,
		-0.8424500823020935]
	}],
	"meshes":[{
		"name":"Boole",
		"primitives":[{
			"attributes":{
				"POSITION":1,
				"NORMAL":2,
				"TEXCOORD_0":3
			},
			"indices":0,
			"material":0
		}]
	},
	{
		"name":"Cylinder.1",
		"primitives":[{
			"attributes":{
				"POSITION":5,
				"NORMAL":6,
				"TEXCOORD_0":7
			},
			"indices":4,
			"material":1
		}]
	},
	{
		"name":"Subdivision Surface",
		"primitives":[{
			"attributes":{
				"POSITION":9,
				"NORMAL":10,
				"TEXCOORD_0":11
			},
			"indices":8,
			"material":2
		}]
	}],
	"accessors":[{
		"bufferView":0,
		"type":"SCALAR",
		"componentType":5123,
		"count":384,
		"min":[0],
		"byteOffset":0,
		"max":[383]
	},
	{
		"bufferView":1,
		"type":"VEC3",
		"componentType":5126,
		"count":384,
		"min":[-0.9952131509780884,
		-1.7716008424758912,
		-0.08295945823192597],
		"byteOffset":0,
		"max":[0.9952131509780884,
		1.7716008424758912,
		0.08295945823192597]
	},
	{
		"bufferView":1,
		"type":"VEC3",
		"componentType":5126,
		"count":384,
		"min":[-1.0,
		-1.0,
		-1.0],
		"byteOffset":12,
		"max":[1.0,
		1.0,
		1.0]
	},
	{
		"bufferView":1,
		"type":"VEC2",
		"componentType":5126,
		"count":384,
		"min":[-0.004999999888241291,
		-0.003922556526958942],
		"byteOffset":24,
		"max":[1.0516197681427003,
		1.003922462463379]
	},
	{
		"bufferView":2,
		"type":"SCALAR",
		"componentType":5123,
		"count":2304,
		"min":[0],
		"byteOffset":0,
		"max":[2303]
	},
	{
		"bufferView":3,
		"type":"VEC3",
		"componentType":5126,
		"count":2304,
		"min":[-0.19008702039718629,
		-1.3065509796142579,
		-0.0700407400727272],
		"byteOffset":0,
		"max":[0.19008702039718629,
		1.3065509796142579,
		0.0700407400727272]
	},
	{
		"bufferView":3,
		"type":"VEC3",
		"componentType":5126,
		"count":2304,
		"min":[-1.0,
		-1.0,
		-1.0],
		"byteOffset":12,
		"max":[1.0,
		1.0,
		1.0]
	},
	{
		"bufferView":3,
		"type":"VEC2",
		"componentType":5126,
		"count":2304,
		"min":[0.0,
		0.0],
		"byteOffset":24,
		"max":[1.0,
		1.0]
	},
	{
		"bufferView":4,
		"type":"SCALAR",
		"componentType":5123,
		"count":10560,
		"min":[0],
		"byteOffset":0,
		"max":[10559]
	},
	{
		"bufferView":5,
		"type":"VEC3",
		"componentType":5126,
		"count":10560,
		"min":[-0.13263042271137238,
		-0.21200315654277802,
		-0.8029206991195679],
		"byteOffset":0,
		"max":[0.12906701862812043,
		0.7620032429695129,
		0.5892934799194336]
	},
	{
		"bufferView":5,
		"type":"VEC3",
		"componentType":5126,
		"count":10560,
		"min":[-1.0,
		-0.9987664222717285,
		-0.9993840456008911],
		"byteOffset":12,
		"max":[1.0,
		0.9999390244483948,
		0.9997526407241821]
	},
	{
		"bufferView":5,
		"type":"VEC2",
		"componentType":5126,
		"count":10560,
		"min":[-0.2767324447631836,
		-0.4826925992965698],
		"byteOffset":24,
		"max":[1.1457724571228028,
		1.2030057907104493]
	}],
	"bufferViews":[{
		"buffer":0,
		"byteOffset":0,
		"byteLength":768,
		"target":34963
	},
	{
		"buffer":0,
		"byteOffset":768,
		"byteLength":12288,
		"target":34962,
		"byteStride":32
	},
	{
		"buffer":1,
		"byteOffset":0,
		"byteLength":4608,
		"target":34963
	},
	{
		"buffer":1,
		"byteOffset":4608,
		"byteLength":73728,
		"target":34962,
		"byteStride":32
	},
	{
		"buffer":2,
		"byteOffset":0,
		"byteLength":21120,
		"target":34963
	},
	{
		"buffer":2,
		"byteOffset":21120,
		"byteLength":337920,
		"target":34962,
		"byteStride":32
	}],
	"buffers":[{
		"uri":"data:application/octet-stream;base64,",
		"byteLength":13056
	},
	{
		"uri":"data:application/octet-stream;base64,",
		"byteLength":78336
	},
	{
		"uri":"data:application/octet-stream;base64,",
		"byteLength":359040
	}],
	"materials":[{
		"pbrMetallicRoughness":{
			"baseColorFactor":[0.9496402877697838,
			0.9496402877697838,
			0.9496402877697838,
			1.0],
			"metallicFactor":0.0,
			"roughnessFactor":0.20000000298023225
		},
		"emissiveFactor":[0.0,
		0.0,
		0.0],
		"alphaMode":"OPAQUE",
		"doubleSided":false,
		"name":"Mat"
	},
	{
		"pbrMetallicRoughness":{
			"baseColorFactor":[0.44604316546762598,
			0.44604316546762598,
			0.44604316546762598,
			1.0],
			"metallicFactor":0.5530000262660906,
			"roughnessFactor":0.20000000298023225
		},
		"emissiveFactor":[0.0,
		0.0,
		0.0],
		"alphaMode":"OPAQUE",
		"doubleSided":false,
		"name":"Mat.1"
	},
	{
		"pbrMetallicRoughness":{
			"baseColorFactor":[0.7553956834532375,
			0.7553956834532375,
			0.7553956834532375,
			1.0],
			"metallicFactor":0.0,
			"roughnessFactor":0.20000000298023225
		},
		"emissiveFactor":[0.0,
		0.0,
		0.0],
		"alphaMode":"OPAQUE",
		"doubleSided":false,
		"name":"Mat.2"
	}]
}