{
	"asset":{
		"version":"2.0",
		"generator":"Maxon Cinema 4D 2024.5.1 (#200000219)"
	},
	"scenes":[{
		"nodes":[0]
	}],
	"nodes":[{
		"name":"Text",
		"translation":[14.675787925720215,
		0.0,
		7.798953533172607],
		"rotation":[0.0,
		0.0,
		0.0,
		-1.0],
		"scale":[1.0,
		1.0,
		1.0],
		"children":[1]
	},
	{
		"name":"1",
		"children":[2,
		3,
		4]
	},
	{
		"name":"Click",
		"children":[5,
		6,
		7,
		8,
		9]
	},
	{
		"name":"The",
		"translation":[7.860000133514404,
		0.0,
		0.0],
		"rotation":[0.0,
		0.0,
		0.0,
		-1.0],
		"scale":[1.0,
		1.0,
		1.0],
		"children":[10,
		11,
		12]
	},
	{
		"name":"Robot",
		"translation":[13.6899995803833,
		0.0,
		0.0],
		"rotation":[0.0,
		0.0,
		0.0,
		-1.0],
		"scale":[1.0,
		1.0,
		1.0],
		"children":[13,
		14,
		15,
		16,
		17]
	},
	{
		"name":"C",
		"mesh":0
	},
	{
		"name":"l",
		"mesh":1,
		"translation":[1.6959999799728394,
		0.0,
		0.0],
		"rotation":[0.0,
		0.0,
		0.0,
		-1.0],
		"scale":[1.0,
		1.0,
		1.0]
	},
	{
		"name":"i",
		"mesh":2,
		"translation":[3.177999973297119,
		0.0,
		0.0],
		"rotation":[0.0,
		0.0,
		0.0,
		-1.0],
		"scale":[1.0,
		1.0,
		1.0]
	},
	{
		"name":"c",
		"mesh":3,
		"translation":[3.8380000591278078,
		0.0,
		0.0],
		"rotation":[0.0,
		0.0,
		0.0,
		-1.0],
		"scale":[1.0,
		1.0,
		1.0]
	},
	{
		"name":"k",
		"mesh":4,
		"translation":[5.533999919891357,
		0.0,
		0.0],
		"rotation":[0.0,
		0.0,
		0.0,
		-1.0],
		"scale":[1.0,
		1.0,
		1.0]
	},
	{
		"name":"T",
		"mesh":5
	},
	{
		"name":"h",
		"mesh":6,
		"translation":[1.815999984741211,
		0.0,
		0.0],
		"rotation":[0.0,
		0.0,
		0.0,
		-1.0],
		"scale":[1.0,
		1.0,
		1.0]
	},
	{
		"name":"e",
		"mesh":7,
		"translation":[3.5380001068115236,
		0.0,
		0.0],
		"rotation":[0.0,
		0.0,
		0.0,
		-1.0],
		"scale":[1.0,
		1.0,
		1.0]
	},
	{
		"name":"R",
		"mesh":8
	},
	{
		"name":"o",
		"mesh":9,
		"translation":[1.815999984741211,
		0.0,
		0.0],
		"rotation":[0.0,
		0.0,
		0.0,
		-1.0],
		"scale":[1.0,
		1.0,
		1.0]
	},
	{
		"name":"b",
		"mesh":10,
		"translation":[3.563999891281128,
		0.0,
		0.0],
		"rotation":[0.0,
		0.0,
		0.0,
		-1.0],
		"scale":[1.0,
		1.0,
		1.0]
	},
	{
		"name":"o",
		"mesh":11,
		"translation":[5.257999897003174,
		0.0,
		0.0],
		"rotation":[0.0,
		0.0,
		0.0,
		-1.0],
		"scale":[1.0,
		1.0,
		1.0]
	},
	{
		"name":"t",
		"mesh":12,
		"translation":[7.00600004196167,
		0.0,
		0.0],
		"rotation":[0.0,
		0.0,
		0.0,
		-1.0],
		"scale":[1.0,
		1.0,
		1.0]
	}],
	"meshes":[{
		"name":"C",
		"primitives":[{
			"attributes":{
				"POSITION":1,
				"NORMAL":2,
				"TEXCOORD_0":3
			},
			"indices":0,
			"material":0
		}]
	},
	{
		"name":"l",
		"primitives":[{
			"attributes":{
				"POSITION":5,
				"NORMAL":6,
				"TEXCOORD_0":7
			},
			"indices":4,
			"material":0
		}]
	},
	{
		"name":"i",
		"primitives":[{
			"attributes":{
				"POSITION":9,
				"NORMAL":10,
				"TEXCOORD_0":11
			},
			"indices":8,
			"material":0
		}]
	},
	{
		"name":"c",
		"primitives":[{
			"attributes":{
				"POSITION":13,
				"NORMAL":14,
				"TEXCOORD_0":15
			},
			"indices":12,
			"material":0
		}]
	},
	{
		"name":"k",
		"primitives":[{
			"attributes":{
				"POSITION":17,
				"NORMAL":18,
				"TEXCOORD_0":19
			},
			"indices":16,
			"material":0
		}]
	},
	{
		"name":"T",
		"primitives":[{
			"attributes":{
				"POSITION":21,
				"NORMAL":22,
				"TEXCOORD_0":23
			},
			"indices":20,
			"material":0
		}]
	},
	{
		"name":"h",
		"primitives":[{
			"attributes":{
				"POSITION":25,
				"NORMAL":26,
				"TEXCOORD_0":27
			},
			"indices":24,
			"material":0
		}]
	},
	{
		"name":"e",
		"primitives":[{
			"attributes":{
				"POSITION":29,
				"NORMAL":30,
				"TEXCOORD_0":31
			},
			"indices":28,
			"material":0
		}]
	},
	{
		"name":"R",
		"primitives":[{
			"attributes":{
				"POSITION":33,
				"NORMAL":34,
				"TEXCOORD_0":35
			},
			"indices":32,
			"material":0
		}]
	},
	{
		"name":"o",
		"primitives":[{
			"attributes":{
				"POSITION":37,
				"NORMAL":38,
				"TEXCOORD_0":39
			},
			"indices":36,
			"material":0
		}]
	},
	{
		"name":"b",
		"primitives":[{
			"attributes":{
				"POSITION":41,
				"NORMAL":42,
				"TEXCOORD_0":43
			},
			"indices":40,
			"material":0
		}]
	},
	{
		"name":"o",
		"primitives":[{
			"attributes":{
				"POSITION":45,
				"NORMAL":46,
				"TEXCOORD_0":47
			},
			"indices":44,
			"material":0
		}]
	},
	{
		"name":"t",
		"primitives":[{
			"attributes":{
				"POSITION":49,
				"NORMAL":50,
				"TEXCOORD_0":51
			},
			"indices":48,
			"material":0
		}]
	}],
	"accessors":[{
		"min":[0],
		"bufferView":0,
		"max":[83],
		"count":84,
		"type":"SCALAR",
		"componentType":5123,
		"byteOffset":0
	},
	{
		"min":[0.08012499660253525,
		0.0001250000059371814,
		-0.8199999928474426],
		"bufferView":1,
		"max":[1.6558749675750733,
		1.3998750448226929,
		0.0],
		"count":84,
		"type":"VEC3",
		"componentType":5126,
		"byteOffset":0
	},
	{
		"min":[-1.0,
		-1.0,
		-1.0],
		"bufferView":1,
		"max":[1.0,
		1.0,
		1.0],
		"count":84,
		"type":"VEC3",
		"componentType":5126,
		"byteOffset":12
	},
	{
		"min":[0.0,
		0.0],
		"bufferView":1,
		"max":[1.0,
		1.0],
		"count":84,
		"type":"VEC2",
		"componentType":5126,
		"byteOffset":24
	},
	{
		"min":[0],
		"bufferView":2,
		"max":[59],
		"count":60,
		"type":"SCALAR",
		"componentType":5123,
		"byteOffset":0
	},
	{
		"min":[0.08012499660253525,
		0.0001250000059371814,
		-0.8199999928474426],
		"bufferView":3,
		"max":[1.4418749809265137,
		1.3998750448226929,
		0.0],
		"count":60,
		"type":"VEC3",
		"componentType":5126,
		"byteOffset":0
	},
	{
		"min":[-1.0,
		-1.0,
		-1.0],
		"bufferView":3,
		"max":[1.0,
		1.0,
		1.0],
		"count":60,
		"type":"VEC3",
		"componentType":5126,
		"byteOffset":12
	},
	{
		"min":[0.0,
		0.0],
		"bufferView":3,
		"max":[1.0,
		1.0],
		"count":60,
		"type":"VEC2",
		"componentType":5126,
		"byteOffset":24
	},
	{
		"min":[0],
		"bufferView":4,
		"max":[35],
		"count":36,
		"type":"SCALAR",
		"componentType":5123,
		"byteOffset":0
	},
	{
		"min":[0.11999999731779099,
		0.0,
		-0.8199999928474426],
		"bufferView":5,
		"max":[0.5398749709129334,
		1.3998750448226929,
		0.0],
		"count":36,
		"type":"VEC3",
		"componentType":5126,
		"byteOffset":0
	},
	{
		"min":[-1.0,
		-1.0,
		-1.0],
		"bufferView":5,
		"max":[1.0,
		1.0,
		1.0],
		"count":36,
		"type":"VEC3",
		"componentType":5126,
		"byteOffset":12
	},
	{
		"min":[0.0,
		0.0],
		"bufferView":5,
		"max":[1.0,
		1.0],
		"count":36,
		"type":"VEC2",
		"componentType":5126,
		"byteOffset":24
	},
	{
		"min":[0],
		"bufferView":6,
		"max":[83],
		"count":84,
		"type":"SCALAR",
		"componentType":5123,
		"byteOffset":0
	},
	{
		"min":[0.08012499660253525,
		0.0001250000059371814,
		-0.8199999928474426],
		"bufferView":7,
		"max":[1.6558749675750733,
		1.3998750448226929,
		0.0],
		"count":84,
		"type":"VEC3",
		"componentType":5126,
		"byteOffset":0
	},
	{
		"min":[-1.0,
		-1.0,
		-1.0],
		"bufferView":7,
		"max":[1.0,
		1.0,
		1.0],
		"count":84,
		"type":"VEC3",
		"componentType":5126,
		"byteOffset":12
	},
	{
		"min":[0.0,
		0.0],
		"bufferView":7,
		"max":[1.0,
		1.0],
		"count":84,
		"type":"VEC2",
		"componentType":5126,
		"byteOffset":24
	},
	{
		"min":[0],
		"bufferView":8,
		"max":[143],
		"count":144,
		"type":"SCALAR",
		"componentType":5123,
		"byteOffset":0
	},
	{
		"min":[0.08012499660253525,
		0.0001250000059371814,
		-0.8199999928474426],
		"bufferView":9,
		"max":[1.6858750581741334,
		1.3998750448226929,
		0.0],
		"count":144,
		"type":"VEC3",
		"componentType":5126,
		"byteOffset":0
	},
	{
		"min":[-1.0,
		-1.0,
		-1.0],
		"bufferView":9,
		"max":[1.0,
		1.0,
		1.0],
		"count":144,
		"type":"VEC3",
		"componentType":5126,
		"byteOffset":12
	},
	{
		"min":[0.0,
		0.0],
		"bufferView":9,
		"max":[1.0,
		1.0],
		"count":144,
		"type":"VEC2",
		"componentType":5126,
		"byteOffset":24
	},
	{
		"min":[0],
		"bufferView":10,
		"max":[83],
		"count":84,
		"type":"SCALAR",
		"componentType":5123,
		"byteOffset":0
	},
	{
		"min":[0.0001250000059371814,
		0.0001250000059371814,
		-0.8199999928474426],
		"bufferView":11,
		"max":[1.8140000104904175,
		1.3998750448226929,
		0.0],
		"count":84,
		"type":"VEC3",
		"componentType":5126,
		"byteOffset":0
	},
	{
		"min":[-1.0,
		-1.0,
		-1.0],
		"bufferView":11,
		"max":[1.0,
		0.9999995231628418,
		1.0],
		"count":84,
		"type":"VEC3",
		"componentType":5126,
		"byteOffset":12
	},
	{
		"min":[0.0,
		0.0],
		"bufferView":11,
		"max":[1.0,
		1.0],
		"count":84,
		"type":"VEC2",
		"componentType":5126,
		"byteOffset":24
	},
	{
		"min":[0],
		"bufferView":12,
		"max":[131],
		"count":132,
		"type":"SCALAR",
		"componentType":5123,
		"byteOffset":0
	},
	{
		"min":[0.08012499660253525,
		0.0001250000059371814,
		-0.8199999928474426],
		"bufferView":13,
		"max":[1.6418750286102296,
		1.3998750448226929,
		0.0],
		"count":132,
		"type":"VEC3",
		"componentType":5126,
		"byteOffset":0
	},
	{
		"min":[-1.0,
		-1.0,
		-1.0],
		"bufferView":13,
		"max":[1.0,
		1.0,
		1.0],
		"count":132,
		"type":"VEC3",
		"componentType":5126,
		"byteOffset":12
	},
	{
		"min":[0.0,
		0.0],
		"bufferView":13,
		"max":[1.0,
		1.0],
		"count":132,
		"type":"VEC2",
		"componentType":5126,
		"byteOffset":24
	},
	{
		"min":[0],
		"bufferView":14,
		"max":[131],
		"count":132,
		"type":"SCALAR",
		"componentType":5123,
		"byteOffset":0
	},
	{
		"min":[0.08012499660253525,
		0.0001250000059371814,
		-0.8199999928474426],
		"bufferView":15,
		"max":[1.6518750190734864,
		1.3998750448226929,
		0.0],
		"count":132,
		"type":"VEC3",
		"componentType":5126,
		"byteOffset":0
	},
	{
		"min":[-1.0,
		-1.0,
		-1.0],
		"bufferView":15,
		"max":[1.0,
		1.0,
		1.0],
		"count":132,
		"type":"VEC3",
		"componentType":5126,
		"byteOffset":12
	},
	{
		"min":[0.0,
		0.0],
		"bufferView":15,
		"max":[1.0,
		1.0],
		"count":132,
		"type":"VEC2",
		"componentType":5126,
		"byteOffset":24
	},
	{
		"min":[0],
		"bufferView":16,
		"max":[131],
		"count":132,
		"type":"SCALAR",
		"componentType":5123,
		"byteOffset":0
	},
	{
		"min":[0.08012499660253525,
		0.0001250000059371814,
		-0.8199999928474426],
		"bufferView":17,
		"max":[1.8158750534057618,
		1.3998750448226929,
		0.0],
		"count":132,
		"type":"VEC3",
		"componentType":5126,
		"byteOffset":0
	},
	{
		"min":[-1.0,
		-1.0,
		-1.0],
		"bufferView":17,
		"max":[1.0,
		1.0,
		1.0],
		"count":132,
		"type":"VEC3",
		"componentType":5126,
		"byteOffset":12
	},
	{
		"min":[0.0,
		0.0],
		"bufferView":17,
		"max":[1.0,
		1.0],
		"count":132,
		"type":"VEC2",
		"componentType":5126,
		"byteOffset":24
	},
	{
		"min":[0],
		"bufferView":18,
		"max":[119],
		"count":120,
		"type":"SCALAR",
		"componentType":5123,
		"byteOffset":0
	},
	{
		"min":[0.08012499660253525,
		0.0,
		-0.8199999928474426],
		"bufferView":19,
		"max":[1.667875051498413,
		1.3998750448226929,
		0.0],
		"count":120,
		"type":"VEC3",
		"componentType":5126,
		"byteOffset":0
	},
	{
		"min":[-1.0,
		-1.0,
		-1.0],
		"bufferView":19,
		"max":[1.0,
		1.0,
		1.0],
		"count":120,
		"type":"VEC3",
		"componentType":5126,
		"byteOffset":12
	},
	{
		"min":[0.0,
		0.0],
		"bufferView":19,
		"max":[1.0,
		1.0],
		"count":120,
		"type":"VEC2",
		"componentType":5126,
		"byteOffset":24
	},
	{
		"min":[0],
		"bufferView":20,
		"max":[179],
		"count":180,
		"type":"SCALAR",
		"componentType":5123,
		"byteOffset":0
	},
	{
		"min":[0.08012499660253525,
		0.0001250000059371814,
		-0.8199999928474426],
		"bufferView":21,
		"max":[1.6138750314712525,
		1.3998750448226929,
		0.0],
		"count":180,
		"type":"VEC3",
		"componentType":5126,
		"byteOffset":0
	},
	{
		"min":[-1.0,
		-1.0,
		-1.0],
		"bufferView":21,
		"max":[1.0,
		1.0,
		1.0],
		"count":180,
		"type":"VEC3",
		"componentType":5126,
		"byteOffset":12
	},
	{
		"min":[0.0,
		0.0],
		"bufferView":21,
		"max":[1.0,
		1.0],
		"count":180,
		"type":"VEC2",
		"componentType":5126,
		"byteOffset":24
	},
	{
		"min":[0],
		"bufferView":22,
		"max":[119],
		"count":120,
		"type":"SCALAR",
		"componentType":5123,
		"byteOffset":0
	},
	{
		"min":[0.08012499660253525,
		0.0,
		-0.8199999928474426],
		"bufferView":23,
		"max":[1.667875051498413,
		1.3998750448226929,
		0.0],
		"count":120,
		"type":"VEC3",
		"componentType":5126,
		"byteOffset":0
	},
	{
		"min":[-1.0,
		-1.0,
		-1.0],
		"bufferView":23,
		"max":[1.0,
		1.0,
		1.0],
		"count":120,
		"type":"VEC3",
		"componentType":5126,
		"byteOffset":12
	},
	{
		"min":[0.0,
		0.0],
		"bufferView":23,
		"max":[1.0,
		1.0],
		"count":120,
		"type":"VEC2",
		"componentType":5126,
		"byteOffset":24
	},
	{
		"min":[0],
		"bufferView":24,
		"max":[83],
		"count":84,
		"type":"SCALAR",
		"componentType":5123,
		"byteOffset":0
	},
	{
		"min":[0.0001250000059371814,
		0.0001250000059371814,
		-0.8199999928474426],
		"bufferView":25,
		"max":[1.8140000104904175,
		1.3998750448226929,
		0.0],
		"count":84,
		"type":"VEC3",
		"componentType":5126,
		"byteOffset":0
	},
	{
		"min":[-1.0,
		-1.0,
		-1.0],
		"bufferView":25,
		"max":[1.0,
		0.9999995231628418,
		1.0],
		"count":84,
		"type":"VEC3",
		"componentType":5126,
		"byteOffset":12
	},
	{
		"min":[0.0,
		0.0],
		"bufferView":25,
		"max":[1.0,
		1.0],
		"count":84,
		"type":"VEC2",
		"componentType":5126,
		"byteOffset":24
	}],
	"bufferViews":[{
		"buffer":0,
		"byteOffset":0,
		"byteLength":168,
		"target":34963
	},
	{
		"buffer":0,
		"byteOffset":168,
		"byteLength":2688,
		"target":34962,
		"byteStride":32
	},
	{
		"buffer":1,
		"byteOffset":0,
		"byteLength":120,
		"target":34963
	},
	{
		"buffer":1,
		"byteOffset":120,
		"byteLength":1920,
		"target":34962,
		"byteStride":32
	},
	{
		"buffer":2,
		"byteOffset":0,
		"byteLength":72,
		"target":34963
	},
	{
		"buffer":2,
		"byteOffset":72,
		"byteLength":1152,
		"target":34962,
		"byteStride":32
	},
	{
		"buffer":3,
		"byteOffset":0,
		"byteLength":168,
		"target":34963
	},
	{
		"buffer":3,
		"byteOffset":168,
		"byteLength":2688,
		"target":34962,
		"byteStride":32
	},
	{
		"buffer":4,
		"byteOffset":0,
		"byteLength":288,
		"target":34963
	},
	{
		"buffer":4,
		"byteOffset":288,
		"byteLength":4608,
		"target":34962,
		"byteStride":32
	},
	{
		"buffer":5,
		"byteOffset":0,
		"byteLength":168,
		"target":34963
	},
	{
		"buffer":5,
		"byteOffset":168,
		"byteLength":2688,
		"target":34962,
		"byteStride":32
	},
	{
		"buffer":6,
		"byteOffset":0,
		"byteLength":264,
		"target":34963
	},
	{
		"buffer":6,
		"byteOffset":264,
		"byteLength":4224,
		"target":34962,
		"byteStride":32
	},
	{
		"buffer":7,
		"byteOffset":0,
		"byteLength":264,
		"target":34963
	},
	{
		"buffer":7,
		"byteOffset":264,
		"byteLength":4224,
		"target":34962,
		"byteStride":32
	},
	{
		"buffer":8,
		"byteOffset":0,
		"byteLength":264,
		"target":34963
	},
	{
		"buffer":8,
		"byteOffset":264,
		"byteLength":4224,
		"target":34962,
		"byteStride":32
	},
	{
		"buffer":9,
		"byteOffset":0,
		"byteLength":240,
		"target":34963
	},
	{
		"buffer":9,
		"byteOffset":240,
		"byteLength":3840,
		"target":34962,
		"byteStride":32
	},
	{
		"buffer":10,
		"byteOffset":0,
		"byteLength":360,
		"target":34963
	},
	{
		"buffer":10,
		"byteOffset":360,
		"byteLength":5760,
		"target":34962,
		"byteStride":32
	},
	{
		"buffer":11,
		"byteOffset":0,
		"byteLength":240,
		"target":34963
	},
	{
		"buffer":11,
		"byteOffset":240,
		"byteLength":3840,
		"target":34962,
		"byteStride":32
	},
	{
		"buffer":12,
		"byteOffset":0,
		"byteLength":168,
		"target":34963
	},
	{
		"buffer":12,
		"byteOffset":168,
		"byteLength":2688,
		"target":34962,
		"byteStride":32
	}],
	"buffers":[{
		"uri":"data:application/octet-stream;base64,",
		"byteLength":2856
	},
	{
		"uri":"data:application/octet-stream;base64,",
		"byteLength":2040
	},
	{
		"uri":"data:application/octet-stream;base64,",
		"byteLength":1224
	},
	{
		"uri":"data:application/octet-stream;base64,",
		"byteLength":2856
	},
	{
		"uri":"data:application/octet-stream;base64,",
		"byteLength":4896
	},
	{
		"uri":"data:application/octet-stream;base64,",
		"byteLength":2856
	},
	{
		"uri":"data:application/octet-stream;base64,",
		"byteLength":4488
	},
	{
		"uri":"data:application/octet-stream;base64,",
		"byteLength":4488
	},
	{
		"uri":"data:application/octet-stream;base64,",
		"byteLength":4488
	},
	{
		"uri":"data:application/octet-stream;base64,",
		"byteLength":4080
	},
	{
		"uri":"data:application/octet-stream;base64,",
		"byteLength":6120
	},
	{
		"uri":"data:application/octet-stream;base64,",
		"byteLength":4080
	},
	{
		"uri":"data:application/octet-stream;base64,",
		"byteLength":2856
	}],
	"materials":[{
		"pbrMetallicRoughness":{
			"baseColorFactor":[0.0,
			0.0,
			0.0,
			1.0],
			"metallicFactor":0.5530000262660906,
			"roughnessFactor":0.20000000298023225
		},
		"emissiveFactor":[0.0,
		0.0,
		0.0],
		"alphaMode":"OPAQUE",
		"doubleSided":false,
		"name":"Mat"
	}]
}